<svg width="16" height="16" viewBox="0 0 16 16" fill="none" xmlns="http://www.w3.org/2000/svg">
<path fill-rule="evenodd" clip-rule="evenodd" d="M8 0.445034C7.77676 0.443566 7.55793 0.503662 7.37034 0.61795C7.18275 0.732237 7.03458 0.895745 6.94399 1.08841L5.40436 4.28468C5.25845 4.58759 4.97008 4.7969 4.63687 4.84177L0.999912 5.33144C0.0532337 5.45987 -0.334771 6.56029 0.338571 7.20367L3.03216 9.77246C3.27585 10.0049 3.38621 10.3443 3.32577 10.6756L2.67193 14.2594C2.64263 14.4177 2.65027 14.5801 2.69431 14.7354C2.73836 14.8906 2.81774 15.0348 2.92693 15.1581C3.03612 15.2813 3.17248 15.3806 3.32649 15.4489C3.4805 15.5173 3.64845 15.553 3.81861 15.5537C4.01954 15.5532 4.2168 15.5029 4.39062 15.4077L7.52637 13.7221C7.8221 13.5631 8.17787 13.5632 8.47356 13.7222L11.6094 15.409C11.796 15.5097 11.9921 15.555 12.1827 15.555C12.3526 15.5541 12.5203 15.5182 12.674 15.4498C12.8278 15.3815 12.9639 15.2823 13.0729 15.1593C13.1819 15.0362 13.2612 14.8921 13.3053 14.7372C13.3494 14.5822 13.3571 14.42 13.3281 14.262L12.6742 10.6768C12.6138 10.3456 12.7241 10.0061 12.9678 9.77375L15.6614 7.20492C16.3348 6.56155 15.9468 5.46113 15.0001 5.3327L11.363 4.84302C11.0299 4.79816 10.7415 4.5889 10.5956 4.28605L9.05601 1.09093C8.96582 0.897792 8.81782 0.733758 8.6302 0.619004C8.44258 0.504249 8.22353 0.44378 8 0.445034ZM8 1.70409C8.09733 1.70409 8.12667 1.76579 8.13867 1.79223L9.82802 5.29619V5.29619C9.96286 5.576 10.2293 5.76928 10.5372 5.81059L10.56 5.81366L14.5307 6.34876C14.5601 6.35155 14.588 6.36266 14.6106 6.38063C14.6332 6.3986 14.6495 6.4226 14.6574 6.44949C14.6677 6.47666 14.6695 6.50604 14.6626 6.53415C14.6558 6.56226 14.6406 6.58793 14.6187 6.60813L11.6827 9.4108L11.6731 9.41993C11.4637 9.61925 11.369 9.91084 11.4214 10.1952V10.1952L12.1347 14.1134C12.1445 14.1621 12.1343 14.2032 12.1041 14.2368C12.089 14.2537 12.0705 14.2675 12.0496 14.2774C12.0288 14.2874 12.006 14.2933 11.9827 14.2947C11.9567 14.2949 11.9312 14.2879 11.9094 14.2745L8.47201 12.425V12.425C8.17719 12.2669 7.82281 12.2669 7.52799 12.425V12.425L4.08928 14.2745C4.06782 14.2876 4.04283 14.2946 4.01728 14.2947C3.99397 14.2933 3.9712 14.2874 3.95035 14.2774C3.9295 14.2675 3.911 14.2537 3.89595 14.2368C3.86573 14.2032 3.85506 14.1621 3.86395 14.1134L4.57862 10.1952V10.1952C4.63103 9.91084 4.53635 9.61925 4.32688 9.41993L4.31729 9.4108L1.38125 6.60813C1.35944 6.58793 1.34421 6.56226 1.33736 6.53415C1.3305 6.50604 1.33232 6.47666 1.34258 6.44949C1.35041 6.42279 1.36654 6.39892 1.38888 6.38096C1.41122 6.36301 1.43875 6.35179 1.46792 6.34876L5.4413 5.81366L5.46286 5.81076C5.7707 5.76934 6.03713 5.57601 6.17198 5.29619V5.29619L7.86133 1.78845C7.87333 1.76705 7.90267 1.70409 8 1.70409Z" fill="#FFA800"/>
</svg>
