<svg width="16" height="16" viewBox="0 0 16 16" fill="none" xmlns="http://www.w3.org/2000/svg">
<path d="M7.25672 0.934273C7.53172 0.281104 8.46832 0.281105 8.74332 0.934275L10.3663 4.78939C10.4823 5.06476 10.7445 5.2529 11.0454 5.27673L15.2582 5.61039C15.9719 5.66693 16.2614 6.54692 15.7175 7.00713L12.5079 9.72335C12.2786 9.9174 12.1784 10.2218 12.2485 10.5119L13.2291 14.5732C13.3952 15.2613 12.6375 15.8052 12.0264 15.4365L8.41965 13.2601C8.16202 13.1046 7.83802 13.1046 7.5804 13.2601L3.9736 15.4365C3.3625 15.8052 2.60477 15.2613 2.77091 14.5732L3.75155 10.5119C3.82159 10.2218 3.72147 9.9174 3.49221 9.72335L0.28245 7.00713C-0.261375 6.54692 0.0280544 5.66693 0.741835 5.61039L4.9547 5.27673C5.25561 5.2529 5.51774 5.06476 5.63367 4.78939L7.25672 0.934273Z" fill="#FFA800"/>
</svg>
